<?xml version="1.0" encoding="UTF-8"?>
<svg version="1.1" xmlns="http://www.w3.org/2000/svg" width="512" height="512">
<path d="M0 0 C6.60519664 5.23624397 8.67660097 12.68981433 9.83203125 20.69921875 C10.05294299 22.16149318 10.27465673 23.62364661 10.49707031 25.08569336 C10.6100647 25.84687469 10.72305908 26.60805603 10.83947754 27.39230347 C22.40174701 104.2556134 59.19273487 187.91984572 123.1171875 235.69921875 C123.68373047 236.11574707 124.25027344 236.53227539 124.83398438 236.96142578 C126.45279226 238.15475353 128.0510644 239.37578503 129.6484375 240.59765625 C160.72101577 264.00798134 197.88955659 279.06707434 234.4453125 291.65625 C235.69152878 292.08680695 235.69152878 292.08680695 236.96292114 292.52606201 C240.98859285 293.91375743 245.01901075 295.28276325 249.06201172 296.61914062 C261.34911713 300.74772335 273.66553493 305.73086089 279.8828125 317.8828125 C282.50304334 331.77003596 278.16578532 343.02731714 270.47265625 354.55859375 C267.74281658 358.22189749 264.75106374 361.58169928 261.62109375 364.90625 C259.45579041 367.19544648 259.45579041 367.19544648 257.44140625 369.79296875 C228.62586212 405.59409933 170.37298677 423.22041645 126.81030273 428.37109375 C63.99510567 434.6339966 1.94358759 418.31154832 -47.4296875 378.5078125 C-60.23463237 367.75011372 -72.20308647 356.41442243 -82.4921875 343.1953125 C-82.93111328 342.64875 -83.37003906 342.1021875 -83.82226562 341.5390625 C-109.13858128 309.99049668 -124.79944709 271.92882124 -131.4921875 232.1953125 C-131.68699707 231.10404053 -131.68699707 231.10404053 -131.88574219 229.99072266 C-142.50612875 168.27645957 -122.74317716 102.1070967 -87.62792969 51.53979492 C-72.19696504 29.72906468 -51.4622982 3.35630713 -23.8515625 -2.51953125 C-15.84572836 -3.48712379 -7.11042675 -4.40169275 0 0 Z " fill="#1D2943" transform="translate(182.4921875,42.8046875)"/>
<path d="M0 0 C7.26500509 -0.39384419 12.93787871 -0.3957562 19 4 C24.44213808 9.44213808 26.25366151 16.08283895 27.32421875 23.50390625 C27.54513049 24.96618068 27.76684423 26.42833411 27.98925781 27.89038086 C28.1022522 28.65156219 28.21524658 29.41274353 28.33166504 30.19699097 C39.89393451 107.0603009 76.68492237 190.72453322 140.609375 238.50390625 C141.17591797 238.92043457 141.74246094 239.33696289 142.32617188 239.76611328 C143.94497976 240.95944103 145.5432519 242.18047253 147.140625 243.40234375 C178.21320327 266.81266884 215.38174409 281.87176184 251.9375 294.4609375 C253.18371628 294.89149445 253.18371628 294.89149445 254.45510864 295.33074951 C258.48078035 296.71844493 262.51119825 298.08745075 266.55419922 299.42382812 C278.84130463 303.55241085 291.15772243 308.53554839 297.375 320.6875 C299.40671332 331.45558059 297.85820376 341.47709585 291.83203125 350.80859375 C289.37803294 352.40447751 286.97503271 352.53520022 284.10546875 352.79785156 C281.02325943 353.09377797 278.03226177 353.75657819 275 354.375 C272.00421782 354.94152033 269.00370778 355.47722005 266 356 C265.18096191 356.14260254 264.36192383 356.28520508 263.51806641 356.43212891 C238.43909147 360.60329765 211.15215822 361.01122684 186 357 C184.74574219 356.80535156 183.49148438 356.61070312 182.19921875 356.41015625 C178.10927031 355.70412838 174.05561063 354.87739138 170 354 C169.09540039 353.80954102 168.19080078 353.61908203 167.25878906 353.42285156 C148.19963595 349.35531116 129.97720294 343.6387002 112.5625 334.8125 C107.40400609 332.31071652 104.5700187 331.41681637 99.14453125 333.2890625 C89.02485477 336.64385507 77.34562713 332.41253544 68.07763672 328.10693359 C60.00932172 324.03999526 52.80518014 318.93763234 46 313 C44.77023438 311.93458984 44.77023438 311.93458984 43.515625 310.84765625 C35.4967704 303.76267447 27.84625156 296.31206272 20.89453125 288.171875 C19.02576571 286.0295376 17.09656192 283.95237809 15.15307617 281.87792969 C8.65604595 274.91852164 2.73021841 267.5996846 -3 260 C-3.95519531 258.73929687 -3.95519531 258.73929687 -4.9296875 257.453125 C-8.57728129 252.44398698 -11.73444519 247.18342917 -14.8125 241.8125 C-15.19809082 241.14686035 -15.58368164 240.4812207 -15.98095703 239.79541016 C-18.33350406 235.60046932 -19.85430957 231.67368952 -21 227 C-21.60328125 226.91105469 -22.2065625 226.82210937 -22.828125 226.73046875 C-26.26773368 225.57362194 -27.25394208 223.16005908 -29.0234375 220.13671875 C-30.32560606 217.28757394 -30.44038137 215.08266961 -30 212 C-29.505 211.01 -29.505 211.01 -29 210 C-28.01 210 -27.02 210 -26 210 C-26.16588623 209.4438501 -26.33177246 208.8877002 -26.50268555 208.31469727 C-27.05067807 205.76412432 -27.04869159 203.57054748 -26.95703125 200.96484375 C-26.31107313 187.09813466 -26.31107313 187.09813466 -30.22265625 173.98828125 C-31.16500687 171.57794725 -30.85991789 170.39587186 -30 168 C-29.34 168.33 -28.68 168.66 -28 169 C-22.18654053 169.53365513 -22.18654053 169.53365513 -17.0625 167.125 C-13.58144053 163.53845388 -13.80573141 161.07459257 -13.85742188 156.27685547 C-14.13127887 149.98283385 -14.80181346 143.72946555 -15.48925781 137.46899414 C-15.74893212 135.07235589 -15.98798164 132.67420828 -16.2265625 130.27539062 C-17.36147352 119.49509655 -18.87685542 108.63411464 -26 100 C-28.53941519 98.0466037 -30.29414113 97.12669262 -33.4375 96.5625 C-36.92718456 97.1582998 -39.12223317 99.00100103 -42 101 C-42.02929981 97.16668301 -42.04689897 93.33339529 -42.0625 89.5 C-42.07506836 87.88351563 -42.07506836 87.88351563 -42.08789062 86.234375 C-42.10571885 80.38671618 -41.89105963 74.78136329 -41 69 C-41.99 68.67 -42.98 68.34 -44 68 C-43 67 -43 67 -40.05859375 66.90234375 C-38.86363281 66.91394531 -37.66867188 66.92554687 -36.4375 66.9375 C-34.64119141 66.95103516 -34.64119141 66.95103516 -32.80859375 66.96484375 C-31.41833984 66.98224609 -31.41833984 66.98224609 -30 67 C-30.639375 65.88625 -31.27875 64.7725 -31.9375 63.625 C-33.00526106 61.76502913 -34.04071468 59.91857063 -35 58 C-31.85709443 59.51325083 -29.01989166 61.188065 -26 63 C-25.67 58.38 -25.34 53.76 -25 49 C-24.34 49 -23.68 49 -23 49 C-22.505 55.93 -22.505 55.93 -22 63 C-20.68 62.34 -19.36 61.68 -18 61 C-16.66666667 60.33333333 -15.33333333 59.66666667 -14 59 C-14.66 59.763125 -15.32 60.52625 -16 61.3125 C-18.29850538 63.84277939 -18.29850538 63.84277939 -18 67 C-12.39 67.66 -6.78 68.32 -1 69 C-1.33 68.34 -1.66 67.68 -2 67 C-2.06950541 65.45976004 -2.08452357 63.91665012 -2.0625 62.375 C-2.05347656 61.55773437 -2.04445312 60.74046875 -2.03515625 59.8984375 C-2.02355469 59.27195313 -2.01195312 58.64546875 -2 58 C-1.4225 58.495 -0.845 58.99 -0.25 59.5 C2.10400629 61.36980013 2.10400629 61.36980013 6 61 C5.59709958 55.35939411 3.78085674 52.96528877 0 49 C-0.99 48.505 -0.99 48.505 -2 48 C-2.05010501 43.25351432 -2.08604647 38.50718857 -2.10986328 33.76049805 C-2.11981068 32.15174675 -2.13337343 30.54301298 -2.15087891 28.93432617 C-2.25551706 19.05833078 -1.91488238 9.72660945 0 0 Z " fill="#31445B" transform="translate(165,40)"/>
<path d="M0 0 C7.26500509 -0.39384419 12.93787871 -0.3957562 19 4 C24.44213808 9.44213808 26.25366151 16.08283895 27.32421875 23.50390625 C27.54513049 24.96618068 27.76684423 26.42833411 27.98925781 27.89038086 C28.1022522 28.65156219 28.21524658 29.41274353 28.33166504 30.19699097 C39.89393451 107.0603009 76.68492237 190.72453322 140.609375 238.50390625 C141.17591797 238.92043457 141.74246094 239.33696289 142.32617188 239.76611328 C143.94497976 240.95944103 145.5432519 242.18047253 147.140625 243.40234375 C178.21320327 266.81266884 215.38174409 281.87176184 251.9375 294.4609375 C253.18371628 294.89149445 253.18371628 294.89149445 254.45510864 295.33074951 C258.48078035 296.71844493 262.51119825 298.08745075 266.55419922 299.42382812 C278.84130463 303.55241085 291.15772243 308.53554839 297.375 320.6875 C298.33181516 325.75862036 298.34404936 330.85526183 298 336 C295.57707969 338.42292031 289.35888007 337.24203953 286.125 337.25 C266.46014359 337.21754043 247.46263023 334.82797148 228.3125 330.5 C227.65078796 330.35070038 226.98907593 330.20140076 226.30731201 330.0475769 C211.72619619 326.71799671 211.72619619 326.71799671 206 324 C205.71125 322.845 205.4225 321.69 205.125 320.5 C204.75375 319.345 204.3825 318.19 204 317 C201.79319729 315.8841449 199.63381396 315.43096058 197.22265625 314.8828125 C193.95463167 313.98757183 191.10510213 312.75371109 188.03344727 311.35205078 C181.4647759 308.37865153 176.24595558 306.65369685 169 306.625 C159.17409601 306.49884203 152.13895501 302.16218537 144 297 C143.05463379 296.40106934 142.10926758 295.80213867 141.13525391 295.18505859 C125.95646147 285.4680098 111.49133246 275.2519651 98.21875 263.03515625 C96.22300901 261.2045558 94.18769389 259.44163517 92.125 257.6875 C83.76095804 250.37107542 76.1072624 242.46639558 69.203125 233.76171875 C66.90851173 230.88531524 64.52135061 228.10447453 62.125 225.3125 C33.49952946 190.9000902 -2.38221791 129.22364473 1 83 C1.20625 82.2575 1.4125 81.515 1.625 80.75 C1.810625 79.88375 1.810625 79.88375 2 79 C1.01 78.01 1.01 78.01 0 77 C-0.495 73.535 -0.495 73.535 -1 70 C-6.94 70.33 -12.88 70.66 -19 71 C-18.67 72.65 -18.34 74.3 -18 76 C-19.65 75.67 -21.3 75.34 -23 75 C-23.66 80.28 -24.32 85.56 -25 91 C-25.33 91 -25.66 91 -26 91 C-26.33 85.72 -26.66 80.44 -27 75 C-30.83736322 75.95934081 -31.59660228 76.23609263 -34 79 C-34.66 78.67 -35.32 78.34 -36 78 C-34.7625 76.824375 -34.7625 76.824375 -33.5 75.625 C-30.77011494 73.36278736 -30.77011494 73.36278736 -31 71 C-35.29 70.34 -39.58 69.68 -44 69 C-43.505 68.01 -43.505 68.01 -43 67 C-38.71 67 -34.42 67 -30 67 C-30.639375 65.88625 -31.27875 64.7725 -31.9375 63.625 C-33.00526106 61.76502913 -34.04071468 59.91857063 -35 58 C-31.85709443 59.51325083 -29.01989166 61.188065 -26 63 C-25.67 58.38 -25.34 53.76 -25 49 C-24.34 49 -23.68 49 -23 49 C-22.505 55.93 -22.505 55.93 -22 63 C-20.68 62.34 -19.36 61.68 -18 61 C-16.66666667 60.33333333 -15.33333333 59.66666667 -14 59 C-14.66 59.763125 -15.32 60.52625 -16 61.3125 C-18.29850538 63.84277939 -18.29850538 63.84277939 -18 67 C-12.39 67.66 -6.78 68.32 -1 69 C-1.33 68.34 -1.66 67.68 -2 67 C-2.06950541 65.45976004 -2.08452357 63.91665012 -2.0625 62.375 C-2.05347656 61.55773437 -2.04445312 60.74046875 -2.03515625 59.8984375 C-2.02355469 59.27195313 -2.01195312 58.64546875 -2 58 C-1.4225 58.495 -0.845 58.99 -0.25 59.5 C2.10400629 61.36980013 2.10400629 61.36980013 6 61 C5.59709958 55.35939411 3.78085674 52.96528877 0 49 C-0.99 48.505 -0.99 48.505 -2 48 C-2.05010501 43.25351432 -2.08604647 38.50718857 -2.10986328 33.76049805 C-2.11981068 32.15174675 -2.13337343 30.54301298 -2.15087891 28.93432617 C-2.25551706 19.05833078 -1.91488238 9.72660945 0 0 Z " fill="#4C5C74" transform="translate(165,40)"/>
<path d="M0 0 C0.66 0 1.32 0 2 0 C1.90912109 1.31436035 1.90912109 1.31436035 1.81640625 2.65527344 C1.58952467 5.96512658 1.36634205 9.27518913 1.14550781 12.58544922 C1.0499403 14.00709607 0.95297891 15.42865005 0.85449219 16.85009766 C-1.54145925 51.49359958 -2.00453454 95.99319819 18 126 C18.99 125.34 19.98 124.68 21 124 C20.76410156 125.28970703 20.76410156 125.28970703 20.5234375 126.60546875 C17.56645623 145.78171293 24.31979959 164.01480605 35.17480469 179.69726562 C37.5986561 182.97119781 40.24749345 186.00145935 43 189 C43.53753906 189.64066406 44.07507813 190.28132812 44.62890625 190.94140625 C51.04881165 198.1336311 60.85285244 203.25724799 70 206 C66.375 209 66.375 209 63 209 C73.09413398 224.64962787 86.22518385 237.71093136 101 249 C102.28463357 250.01203228 103.5684217 251.02513823 104.8515625 252.0390625 C114.53938986 259.63319592 124.56199037 266.48114292 135 273 C134.34 273.66 133.68 274.32 133 275 C132.69889182 277.88904363 132.69889182 277.88904363 134 281 C136.82695101 284.03279696 139.9287669 286.62764349 144.0859375 287.375 C146.18734413 287.41456837 146.18734413 287.41456837 149 287 C149.33 285.35 149.66 283.7 150 282 C154.41604873 283.35768488 158.56163686 285.09125069 162.77172852 286.96948242 C184.18390767 296.47373488 205.94199883 302.88440715 229 307 C229.97904297 307.17934082 230.95808594 307.35868164 231.96679688 307.54345703 C255.95339587 311.71090099 280.7567681 310.28400478 305 310 C305 310.66 305 311.32 305 312 C241.51254815 334.26646586 174.91451881 336.49958906 112.94921875 307.41015625 C81.73925054 292.3876525 53.32383593 270.39618656 32 243 C31.56107422 242.4534375 31.12214844 241.906875 30.66992188 241.34375 C5.35360622 209.79518418 -10.30725959 171.73350874 -17 132 C-17.19480957 130.90872803 -17.19480957 130.90872803 -17.39355469 129.79541016 C-24.47677539 88.63535037 -18.67407355 37.3481471 0 0 Z " fill="#0B121E" transform="translate(68,143)"/>
<path d="M0 0 C22.33217286 11.76233376 31.98264077 37.55434944 42.125 59.0625 C56.04178448 88.46839205 73.69526057 108.47066023 104.4375 121.0625 C109.45603819 123.21774818 113.72587111 125.09118038 116.4375 130.0625 C117.14942628 135.49093791 116.4919045 139.42986612 113.84375 144.234375 C110.5466156 148.52064971 105.69187396 151.04972945 100.4375 152.0625 C83.58026766 154.12544801 67.05677002 145.18788715 54.1875 135.125 C52.59081493 133.78660222 51.00737705 132.43224372 49.4375 131.0625 C48.20773438 129.99708984 48.20773438 129.99708984 46.953125 128.91015625 C38.9342704 121.82517447 31.28375156 114.37456272 24.33203125 106.234375 C22.46326571 104.0920376 20.53406192 102.01487809 18.59057617 99.94042969 C12.09354595 92.98102164 6.16771841 85.6621846 0.4375 78.0625 C-0.19929688 77.22203125 -0.83609375 76.3815625 -1.4921875 75.515625 C-5.13978129 70.50648698 -8.29694519 65.24592917 -11.375 59.875 C-11.76059082 59.20936035 -12.14618164 58.5437207 -12.54345703 57.85791016 C-14.89600406 53.66296932 -16.41680957 49.73618952 -17.5625 45.0625 C-18.46742188 44.92908203 -18.46742188 44.92908203 -19.390625 44.79296875 C-22.83023368 43.63612194 -23.81644208 41.22255908 -25.5859375 38.19921875 C-26.88810606 35.35007394 -27.00288137 33.14516961 -26.5625 30.0625 C-26.2325 29.4025 -25.9025 28.7425 -25.5625 28.0625 C-24.5725 28.0625 -23.5825 28.0625 -22.5625 28.0625 C-22.72105469 27.56492188 -22.87960938 27.06734375 -23.04296875 26.5546875 C-23.76189853 23.10598676 -23.82672614 19.69540077 -23.875 16.1875 C-23.91850586 15.14529297 -23.91850586 15.14529297 -23.96289062 14.08203125 C-24.02658258 8.87888808 -22.86775953 6.03344228 -19.5625 2.0625 C-14.38776676 -3.01580964 -6.52654971 -1.71751308 0 0 Z " fill="#59687B" transform="translate(161.5625,221.9375)"/>
<path d="M0 0 C0.66 0 1.32 0 2 0 C1.90912109 1.31436035 1.90912109 1.31436035 1.81640625 2.65527344 C1.58952467 5.96512658 1.36634205 9.27518913 1.14550781 12.58544922 C1.0499403 14.00709607 0.95297891 15.42865005 0.85449219 16.85009766 C-0.07375863 30.27184669 -0.14531522 43.44165059 0.75 56.875 C0.83290283 58.12917725 0.91580566 59.38335449 1.0012207 60.67553711 C1.66696377 69.68854192 2.89536054 78.45806713 4.76660156 87.29833984 C4.94030273 88.12930176 5.11400391 88.96026367 5.29296875 89.81640625 C5.4530542 90.53256104 5.61313965 91.24871582 5.77807617 91.98657227 C6.02623454 94.2380157 5.67243156 95.85177876 5 98 C-1.9275722 80.51612731 -7.91652984 62.5889201 -11 44 C-16.84532214 75.49663871 -13.81412281 106.9210845 -7 138 C-6.83773926 138.74185547 -6.67547852 139.48371094 -6.50830078 140.24804688 C1.78552504 176.94249834 20.663896 211.53544979 45 240 C45.66 240.77214844 46.32 241.54429687 47 242.33984375 C58.21960696 255.11064636 70.20793046 267.0349124 84 277 C84.62874023 277.45713379 85.25748047 277.91426758 85.90527344 278.38525391 C118.64161369 302.00462931 163.65040029 324.1739634 205 323 C204.46858398 322.86537354 203.93716797 322.73074707 203.38964844 322.59204102 C167.68762765 313.38367184 136.23726401 294.2993365 110.70703125 267.6796875 C109.09136102 265.91711459 109.09136102 265.91711459 107 265 C107 264.34 107 263.68 107 263 C106.01 262.67 105.02 262.34 104 262 C102.52734375 260.5390625 102.52734375 260.5390625 100.9375 258.625 C98.11986944 255.29346198 95.2223331 252.06943112 92.25 248.875 C88.30016338 244.53625639 84.53479968 240.08604528 80.875 235.5 C80.3893457 234.9004248 79.90369141 234.30084961 79.40332031 233.68310547 C76 229.35687172 76 229.35687172 76 226 C76.88300781 226.90621094 77.76601562 227.81242188 78.67578125 228.74609375 C85.78280567 235.98463748 92.95961563 242.7902853 101 249 C102.28799794 250.01662623 103.57573998 251.03357671 104.86328125 252.05078125 C114.54911166 259.63824022 124.5667311 266.48410366 135 273 C134.34 273.66 133.68 274.32 133 275 C132.69889182 277.88904363 132.69889182 277.88904363 134 281 C136.82695101 284.03279696 139.9287669 286.62764349 144.0859375 287.375 C146.18734413 287.41456837 146.18734413 287.41456837 149 287 C149.33 285.35 149.66 283.7 150 282 C154.41604873 283.35768488 158.56163686 285.09125069 162.77172852 286.96948242 C184.18390767 296.47373488 205.94199883 302.88440715 229 307 C229.97904297 307.17934082 230.95808594 307.35868164 231.96679688 307.54345703 C255.95339587 311.71090099 280.7567681 310.28400478 305 310 C305 310.66 305 311.32 305 312 C241.51254815 334.26646586 174.91451881 336.49958906 112.94921875 307.41015625 C81.73925054 292.3876525 53.32383593 270.39618656 32 243 C31.56107422 242.4534375 31.12214844 241.906875 30.66992188 241.34375 C5.35360622 209.79518418 -10.30725959 171.73350874 -17 132 C-17.19480957 130.90872803 -17.19480957 130.90872803 -17.39355469 129.79541016 C-24.47677539 88.63535037 -18.67407355 37.3481471 0 0 Z " fill="#121E34" transform="translate(68,143)"/>
<path d="M0 0 C0.99 0.495 0.99 0.495 2 1 C2.67919922 3.11254883 2.67919922 3.11254883 3.3046875 5.95703125 C3.55186523 7.03170654 3.79904297 8.10638184 4.05371094 9.21362305 C4.32473633 10.40125244 4.59576172 11.58888184 4.875 12.8125 C21.21277841 80.84666357 55.68750644 151.38956318 113.32617188 193.76611328 C114.94497976 194.95944103 116.5432519 196.18047253 118.140625 197.40234375 C151.22066174 222.32510385 190.57787858 236.65264012 229 251 C229 251.33 229 251.66 229 252 C219.66463658 252.2375137 210.68267318 251.58823328 201.4375 250.3125 C200.46012878 250.17953522 200.46012878 250.17953522 199.4630127 250.04388428 C188.06817698 248.47885819 177.02440702 246.27831051 166 243 C165.27554688 242.79181641 164.55109375 242.58363281 163.8046875 242.36914062 C139.14566702 235.18797427 114.8208609 223.1548059 94.6953125 207.12890625 C91.98255588 204.92900937 91.98255588 204.92900937 88.8671875 202.90234375 C81.36622173 197.61713641 81.36622173 197.61713641 80.3046875 192.9296875 C80.22614232 190.71471356 80.1954026 188.49756171 80.2109375 186.28125 C79.84995985 180.66604203 77.10660989 176.56421358 74 172 C73.57976562 171.36578125 73.15953125 170.7315625 72.7265625 170.078125 C66.75935472 162.19417776 57.62274941 156.38490239 48.125 154.0625 C42.14185912 152.43399523 39.799158 150.36372717 36.6640625 145.07421875 C36.11492187 144.05972656 35.56578125 143.04523438 35 142 C34.30338822 140.81670043 33.60262649 139.6358373 32.8984375 138.45703125 C30.48465716 134.36430461 28.22710182 130.19664764 26 126 C25.63648438 125.32453125 25.27296875 124.6490625 24.8984375 123.953125 C12.90210332 101.34132964 1.47099361 71.79535937 2 46 C5.96 46.495 5.96 46.495 10 47 C10.12815365 44.6147267 10.12815365 44.6147267 9 42 C6.9985356 40.76633875 4.99160173 39.8716107 2.8125 38.9921875 C1 38 1 38 0 35 C-0.08494728 32.34105893 -0.11594796 29.70914623 -0.09765625 27.05078125 C-0.0962413 26.27816452 -0.09482635 25.50554779 -0.09336853 24.70951843 C-0.08777466 22.24380611 -0.07522333 19.77818485 -0.0625 17.3125 C-0.05748421 15.63997527 -0.05292144 13.96744912 -0.04882812 12.29492188 C-0.03780724 8.19657954 -0.02054684 4.09830521 0 0 Z " fill="#98A1B0" transform="translate(194,86)"/>
<path d="M0 0 C2.47954332 2.2164618 3.68692161 4.1741358 4.91015625 7.25390625 C5.25473877 8.09912842 5.59932129 8.94435059 5.9543457 9.81518555 C6.32003662 10.72179932 6.68572754 11.62841309 7.0625 12.5625 C22.71184898 50.05727265 49.11795949 84.80290347 81 110 C81.85851562 110.72574219 82.71703125 111.45148438 83.6015625 112.19921875 C93.68198281 120.71851202 104.66912649 127.71312628 116 134.4375 C116.69367676 134.85056396 117.38735352 135.26362793 118.10205078 135.68920898 C122.29600207 138.13947669 126.49718267 140.1765935 131 142 C126.08568341 146.03676006 121.55074192 146.41895129 115.31640625 146.3359375 C98.81385402 144.66430088 84.24439427 135.68343672 72 125 C71.18015625 124.28972656 70.3603125 123.57945312 69.515625 122.84765625 C61.4967704 115.76267447 53.84625156 108.31206272 46.89453125 100.171875 C45.02576571 98.0295376 43.09656192 95.95237809 41.15307617 93.87792969 C34.65604595 86.91852164 28.73021841 79.5996846 23 72 C22.36320312 71.15953125 21.72640625 70.3190625 21.0703125 69.453125 C17.42271871 64.44398698 14.26555481 59.18342917 11.1875 53.8125 C10.80190918 53.14686035 10.41631836 52.4812207 10.01904297 51.79541016 C7.66649594 47.60046932 6.14569043 43.67368952 5 39 C4.09507812 38.86658203 4.09507812 38.86658203 3.171875 38.73046875 C-0.26773368 37.57362194 -1.25394208 35.16005908 -3.0234375 32.13671875 C-4.32560606 29.28757394 -4.44038137 27.08266961 -4 24 C-3.67 23.34 -3.34 22.68 -3 22 C-2.01 22 -1.02 22 0 22 C-0.16242188 21.50757813 -0.32484375 21.01515625 -0.4921875 20.5078125 C-1.20846852 16.97048625 -1.14427978 13.4674662 -1.125 9.875 C-1.12886719 9.14667969 -1.13273438 8.41835937 -1.13671875 7.66796875 C-1.12671034 2.25342069 -1.12671034 2.25342069 0 0 Z " fill="#495368" transform="translate(139,228)"/>
<path d="M0 0 C7.95799073 -0.75790388 11.82771194 1.08920147 18 6 C18.82371094 6.60972656 19.64742187 7.21945312 20.49609375 7.84765625 C29.37156196 15.47695888 34.16512462 27.02359656 38.85205078 37.47802734 C41.0994447 42.41541126 43.4651312 47.29708389 45.8125 52.1875 C46.51511963 53.65775635 46.51511963 53.65775635 47.23193359 55.15771484 C47.90023193 56.55497803 47.90023193 56.55497803 48.58203125 57.98046875 C49.00097656 58.85687012 49.41992188 59.73327148 49.8515625 60.63623047 C50.802088 62.59264796 51.79591967 64.52795859 52.80078125 66.45703125 C54.40843801 69.86610144 54.39970918 72.26938103 54 76 C51.77419355 81.22580645 51.77419355 81.22580645 50 83 C42.32642961 83.99472209 37.2873767 81.26173651 31 77 C27.44899933 74.19906299 24.19937298 71.19403179 21 68 C20.30003906 67.31164062 19.60007812 66.62328125 18.87890625 65.9140625 C5.3960415 51.77413807 -3.69133812 30.78757493 -3.3046875 11.26171875 C-2.90691137 7.00347423 -1.84341962 3.84045754 0 0 Z " fill="#30435A" transform="translate(90,265)"/>
<path d="M0 0 C0.12621974 7.4469649 0.12621974 7.4469649 -0.48632812 10.13085938 C-1.14295687 13.79849295 -1.23248719 17.42986739 -1.31640625 21.14453125 C-1.33718735 21.91431808 -1.35796844 22.68410492 -1.37937927 23.47721863 C-1.44446049 25.92222667 -1.50356591 28.36733683 -1.5625 30.8125 C-1.60572468 32.47592177 -1.64934021 34.13933344 -1.69335938 35.80273438 C-1.80009907 39.86838648 -1.90148171 43.93414071 -2 48 C-1.07767578 48.42539063 -1.07767578 48.42539063 -0.13671875 48.859375 C2.79911311 50.42658323 4.17488947 52.23086679 6 55 C6.75 58.3125 6.75 58.3125 7 61 C4.6875 61.6875 4.6875 61.6875 2 62 C1.01 61.01 0.02 60.02 -1 59 C-1 62.3 -1 65.6 -1 69 C-6.61 68.67 -12.22 68.34 -18 68 C-18.33 66.68 -18.66 65.36 -19 64 C-17.5625 61.75 -17.5625 61.75 -16 60 C-17.32 61.32 -18.64 62.64 -20 64 C-21.485 63.505 -21.485 63.505 -23 63 C-23 58.38 -23 53.76 -23 49 C-23.66 49 -24.32 49 -25 49 C-24.98839844 49.59167969 -24.97679687 50.18335938 -24.96484375 50.79296875 C-24.91677614 55.00231785 -24.93993117 58.8922333 -26 63 C-28.96175123 62.38722388 -30.38058783 61.74627478 -33 60 C-32.505 60.598125 -32.01 61.19625 -31.5 61.8125 C-30 64 -30 64 -30 67 C-33.63 67 -37.26 67 -41 67 C-40.21844368 55.37235595 -38.09829419 44.152731 -35.5 32.8125 C-35.3446579 32.13283173 -35.1893158 31.45316345 -35.02926636 30.75289917 C-34.05101585 26.49408472 -33.05889672 22.23959786 -32 18 C-31.54935181 16.1281604 -31.54935181 16.1281604 -31.08959961 14.21850586 C-29.84019365 10.52795717 -28.4534959 9.48452113 -25.0480957 7.69140625 C-24.39284912 7.38074219 -23.73760254 7.07007813 -23.0625 6.75 C-22.3924292 6.41355469 -21.7223584 6.07710937 -21.03198242 5.73046875 C-14.28566575 2.4486073 -7.56198362 0 0 0 Z " fill="#32455C" transform="translate(165,40)"/>
<path d="M0 0 C5.96262909 1.81008383 9.236898 6.3419206 12.2980957 11.56347656 C16.7761108 20.87425505 17.25132725 32.11580214 18.1875 42.25 C18.31705078 43.53841797 18.44660156 44.82683594 18.58007812 46.15429688 C20.53169483 66.38295896 20.53169483 66.38295896 17.125 70.625 C13.64734402 73.85425198 11.5232072 74.55277224 6.71875 74.45703125 C1.46156166 73.52221431 -2.09581767 69.94552792 -5.1953125 65.7890625 C-13.84971935 52.00289681 -18.89653883 35.51284194 -15.99609375 19.234375 C-14.14721573 12.34598374 -10.96057066 6.71732624 -6.125 1.5 C-3.5 0.0625 -3.5 0.0625 0 0 Z " fill="#1C2842" transform="translate(132.5,135.9375)"/>
<path d="M0 0 C2.22770342 0.56826732 4.456598 1.13192235 6.6875 1.6875 C8.04488281 2.03941406 8.04488281 2.03941406 9.4296875 2.3984375 C12.04803054 3.01124119 14.65507722 3.40793713 17.3125 3.8125 C22.33689504 4.79306742 25.87025786 6.91021426 29 11 C29.9375 14.375 29.9375 14.375 30 17 C19.69999694 25.46463017 10.17175097 27.20880088 -2.9375 27.125 C-3.73236816 27.12016602 -4.52723633 27.11533203 -5.34619141 27.11035156 C-21.88529018 26.94044095 -37.01548502 22.61706342 -49.66015625 11.39453125 C-51.67577405 9.29664334 -52.89896497 7.47991639 -53.5 4.625 C-52.89608402 1.45444108 -51.51474082 0.17784842 -49.09375 -1.88671875 C-34.22679008 -9.79172542 -15.07222926 -4.09749181 0 0 Z " fill="#30435A" transform="translate(292,410)"/>
<path d="M0 0 C12.94150495 2.74516772 23.11481431 11.71330996 30.4140625 22.359375 C34.69887951 29.49370085 36.01133157 34.68848191 35 43 C33.5 46.25 33.5 46.25 31 48 C24.02278433 49.20296822 18.71840009 46.99966748 13 43 C6.31610038 37.22494771 0.23924027 30.58344593 -5.4375 23.828125 C-6.56335776 22.51087142 -7.7366514 21.23364491 -8.9375 19.984375 C-11.98834722 16.76130253 -13.81143475 14.61807498 -15.125 10.3125 C-14.98333966 6.5585009 -14.33065131 4.91331414 -12 2 C-7.86576985 -0.75615343 -4.85144201 -0.5586509 0 0 Z " fill="#31445B" transform="translate(240,238)"/>
<path d="M0 0 C6.13084551 1.80817564 11.98682756 4.37022144 17.79589844 7.01757812 C19.20997111 7.64786484 20.64013692 8.24383316 22.08691406 8.79492188 C26.68914035 10.55243701 26.68914035 10.55243701 28.296875 12.8671875 C28.77988522 15.00742242 29.12014176 16.80312208 29 19 C26.05764636 23.22963335 22.99322067 25.00135587 18 26 C6.75158271 27.08639989 -3.54458726 24.77432543 -12.37890625 17.51953125 C-15.99761111 14.12754043 -18.78071578 11.06127169 -19.3125 6.0625 C-19 3 -19 3 -17.38671875 1.3515625 C-12.21208863 -1.57875177 -5.71585357 -1.01828652 0 0 Z " fill="#1D2942" transform="translate(342,346)"/>
<path d="M0 0 C0.99 1.051875 0.99 1.051875 2 2.125 C16.27947609 16.20615003 33.90391063 20.21874792 53.33300781 20.18310547 C64.82030552 20.03252291 74.29861695 17.2589568 84 11 C83.6855679 15.40204946 82.64874507 18.3203564 79.63671875 21.6171875 C68.98276938 30.61837623 52.07031122 30.03794411 39 29 C27.28771024 27.36462994 12.7882539 22.42461576 5 13 C0 4.8494898 0 4.8494898 0 0 Z " fill="#0B131F" transform="translate(238,416)"/>
<path d="M0 0 C0.66 0.33 1.32 0.66 2 1 C1.071875 2.7015625 1.071875 2.7015625 0.125 4.4375 C-6.82031942 18.57442676 -4.65479855 33.880081 0.1015625 48.3515625 C3.607182 58.18991401 7.96436898 64.49496537 16 71 C16 71.66 16 72.32 16 73 C11.41733483 73.57283315 8.78884419 73.26676981 4.9375 70.625 C-5.10844173 62.34729946 -9.9094791 47.45223318 -12 35 C-12.9757581 23.10629987 -11.48644093 12.57621432 -4 3 C-1.6875 1 -1.6875 1 0 0 Z " fill="#0B131F" transform="translate(128,137)"/>
<path d="M0 0 C13.49882024 5.39574161 24.04618924 16.33308386 29.75 29.625 C30.1484375 32.73046875 30.1484375 32.73046875 30.125 35.8125 C30.13660156 37.34970703 30.13660156 37.34970703 30.1484375 38.91796875 C29.70669696 41.91920592 29.11145492 42.80705455 26.75 44.625 C26.66363281 43.93535156 26.57726562 43.24570312 26.48828125 42.53515625 C24.5984584 29.89588235 18.23264087 20.29818291 8.00390625 12.54296875 C-0.65565027 6.83799046 -7.92479596 4.23858794 -18.25 3.625 C-14.85453213 -3.89353601 -6.85008328 -2.13626316 0 0 Z " fill="#202C46" transform="translate(245.25,239.375)"/>
<path d="M0 0 C0.66 0 1.32 0 2 0 C2.495 6.93 2.495 6.93 3 14 C4.32 13.34 5.64 12.68 7 12 C8.33333333 11.33333333 9.66666667 10.66666667 11 10 C10.34 10.763125 9.68 11.52625 9 12.3125 C6.70149462 14.84277939 6.70149462 14.84277939 7 18 C11.62 18.66 16.24 19.32 21 20 C21 20.33 21 20.66 21 21 C16.05 21.33 11.1 21.66 6 22 C6.33 23.65 6.66 25.3 7 27 C5.35 26.67 3.7 26.34 2 26 C1.34 31.28 0.68 36.56 0 42 C-0.33 42 -0.66 42 -1 42 C-1.33 36.72 -1.66 31.44 -2 26 C-5.83736322 26.95934081 -6.59660228 27.23609263 -9 30 C-9.66 29.67 -10.32 29.34 -11 29 C-10.175 28.21625 -9.35 27.4325 -8.5 26.625 C-5.77011494 24.36278736 -5.77011494 24.36278736 -6 22 C-10.29 21.34 -14.58 20.68 -19 20 C-18.67 19.34 -18.34 18.68 -18 18 C-13.71 18 -9.42 18 -5 18 C-5.639375 16.88625 -6.27875 15.7725 -6.9375 14.625 C-8.00526106 12.76502913 -9.04071468 10.91857063 -10 9 C-6.85709443 10.51325083 -4.01989166 12.188065 -1 14 C-0.67 9.38 -0.34 4.76 0 0 Z " fill="#EBEDEF" transform="translate(140,89)"/>
<path d="M0 0 C0.99 0.495 0.99 0.495 2 1 C2.82202148 3.50927734 2.82202148 3.50927734 3.62109375 6.8359375 C3.91693359 8.04636719 4.21277344 9.25679687 4.51757812 10.50390625 C4.82115234 11.78136719 5.12472656 13.05882813 5.4375 14.375 C6.0392536 16.86224822 6.6421045 19.34923123 7.24609375 21.8359375 C7.53597168 23.04217773 7.82584961 24.24841797 8.12451172 25.49121094 C9.16572808 29.66420634 10.33890551 33.7909649 11.56665039 37.91259766 C12 40 12 40 11 42 C9.33333333 41.33333333 7.66666667 40.66666667 6 40 C5.0925 39.690625 4.185 39.38125 3.25 39.0625 C2.13625 38.5365625 2.13625 38.5365625 1 38 C-0.23180134 34.30459598 -0.12412112 30.89696622 -0.09765625 27.05078125 C-0.0962413 26.27816452 -0.09482635 25.50554779 -0.09336853 24.70951843 C-0.08777466 22.24380611 -0.07522333 19.77818485 -0.0625 17.3125 C-0.05748421 15.63997527 -0.05292144 13.96744912 -0.04882812 12.29492188 C-0.03780724 8.19657954 -0.02054684 4.09830521 0 0 Z " fill="#9DA6B4" transform="translate(194,86)"/>
<path d="M0 0 C1.0828125 1.11375 1.0828125 1.11375 2.1875 2.25 C10.97259248 10.8398682 20.62129365 15.17625807 32.875 15.1875 C33.56980469 15.19974609 34.26460938 15.21199219 34.98046875 15.22460938 C39.37692393 15.23702874 42.91709235 14.61908407 47 13 C46.8125 14.8125 46.8125 14.8125 46 17 C39.5888977 21.67837195 32.68505851 21.64649189 25 21 C15.80749557 19.0188568 9.07454925 15.17902487 2.5625 8.5 C0.77090836 5.63345338 0.31099195 3.34316344 0 0 Z " fill="#0D1421" transform="translate(323,351)"/>
<path d="M0 0 C4.90012783 -0.61251598 7.29889843 -0.15917941 11.3125 2.8125 C13.81514898 4.80380224 15.19261187 6.28891781 17 9 C16.625 11.6875 16.625 11.6875 16 14 C11.09987217 14.61251598 8.70110157 14.15917941 4.6875 11.1875 C2.18485102 9.19619776 0.80738813 7.71108219 -1 5 C-0.625 2.3125 -0.625 2.3125 0 0 Z " fill="#495972" transform="translate(201,417)"/>
<path d="M0 0 C5.11607183 -0.54815055 8.12282911 -0.37896641 12.4375 2.5625 C15.45814188 5.05008743 15.96143072 5.86160435 17.0625 9.8125 C17 13 17 13 16 14 C9.05181566 14.12407472 5.7451863 11.69796609 0.58984375 7.203125 C-1 5 -1 5 -0.74609375 2.234375 C-0.37677734 1.12835938 -0.37677734 1.12835938 0 0 Z " fill="#304259" transform="translate(240,378)"/>
<path d="M0 0 C0.77601563 -0.00257813 1.55203125 -0.00515625 2.3515625 -0.0078125 C4.375 0.125 4.375 0.125 6.375 1.125 C6.375 2.775 6.375 4.425 6.375 6.125 C0.45596151 9.58707912 -3.52973058 11.63180496 -10.625 11.125 C-12.625 9.875 -12.625 9.875 -13.625 8.125 C-13.5625 6.125 -13.5625 6.125 -12.625 4.125 C-8.78975892 0.5542583 -5.10457641 -0.01707216 0 0 Z " fill="#495972" transform="translate(354.625,432.875)"/>
<path d="M0 0 C3.25 1.875 3.25 1.875 6 4 C6.61875 4.474375 7.2375 4.94875 7.875 5.4375 C9.47721668 7.66280094 9.2809437 9.33103485 9 12 C8 13 8 13 4.9375 13.4375 C-0.29496703 12.85611477 -3.23053551 10.56149404 -7 7 C-9 4 -9 4 -9 0 C-5.81011624 -1.59494188 -3.42171253 -0.74137105 0 0 Z " fill="#34475E" transform="translate(334,303)"/>
<path d="M0 0 C6.1569867 0.02792284 10.17166623 0.9898052 14.69140625 5.30078125 C16.57702726 7.7492742 16.92752438 9.95602415 17 13 C13.48478561 13.95203723 11.2676682 14.53667705 7.859375 13.09375 C0.77760922 8.79223301 0.77760922 8.79223301 -1 5 C-0.6875 2.25 -0.6875 2.25 0 0 Z " fill="#1D2943" transform="translate(274,338)"/>
<path d="M0 0 C0.61857991 4.94863929 0.13512566 7.32740384 -2.875 11.375 C-5.62057878 14.81028939 -5.62057878 14.81028939 -8 16 C-9.99960012 16.039992 -12.00047242 16.04346799 -14 16 C-14.56463521 10.46657494 -13.63740795 7.74638821 -10.38671875 3.48046875 C-7.06281575 -0.06814882 -4.63870238 -0.20616455 0 0 Z " fill="#30425A" transform="translate(107,137)"/>
<path d="M0 0 C0.66 1.32 1.32 2.64 2 4 C-1.70338989 8.11487766 -4.64132828 9.81500614 -10.1875 10.25 C-13 10 -13 10 -15 8 C-15 6.125 -15 6.125 -14 4 C-9.25359274 -0.16757711 -6.01957142 -0.41514286 0 0 Z " fill="#2F4159" transform="translate(406,405)"/>
<path d="M0 0 C3.80148599 0.21722777 4.96820273 0.96892539 7.75 3.6875 C10.03961434 6.65179693 10.7310291 9.23440747 11 13 C9.02 13.99 9.02 13.99 7 15 C1.16242661 10.69863014 1.16242661 10.69863014 0 7 C-0.0777346 4.66796188 -0.08967728 2.33160941 0 0 Z " fill="#2F4259" transform="translate(137,281)"/>
<path d="M0 0 C4.90586355 0.46281732 7.89313719 2.89313719 11.3125 6.3125 C10.9375 8.4375 10.9375 8.4375 10.3125 10.3125 C6.13667812 10.64656575 3.72378084 10.51814042 -0.0625 8.625 C-2.6875 6.3125 -2.6875 6.3125 -3.625 3.625 C-3.645625 2.861875 -3.66625 2.09875 -3.6875 1.3125 C-2.6875 0.3125 -2.6875 0.3125 0 0 Z " fill="#1E2A44" transform="translate(156.6875,112.6875)"/>
<path d="M0 0 C3.05561782 1.05366132 3.98224736 1.97210299 5.75 4.75 C7.05403339 8.14048682 7.32675647 10.40567886 7 14 C6.67 14.66 6.34 15.32 6 16 C3.6875 15.875 3.6875 15.875 1 15 C-1.96579947 10.70470421 -2.49553355 7.15354894 -2 2 C-1.34 1.34 -0.68 0.68 0 0 Z " fill="#1E2A44" transform="translate(199,243)"/>
<path d="M0 0 C1.8125 0.0625 1.8125 0.0625 4 1 C6.93164982 4.42025812 7.95757268 6.34237647 8.25 10.875 C8.1675 11.90625 8.085 12.9375 8 14 C6.02 14.99 6.02 14.99 4 16 C-0.128566 12.00461355 -0.59005397 8.58723616 -1.01953125 3.109375 C-1 1 -1 1 0 0 Z " fill="#1F2B45" transform="translate(408,351)"/>
<path d="M0 0 C2.1875 -0.375 2.1875 -0.375 5 0 C8.98085311 3.79990524 10.59851447 6.37920259 11 12 C9.35 12.33 7.7 12.66 6 13 C0.11816193 7.08315098 0.11816193 7.08315098 -0.375 2.5625 C-0.25125 1.716875 -0.1275 0.87125 0 0 Z " fill="#1E2A44" transform="translate(161,89)"/>
<path d="M0 0 C4.20400687 0.39660442 6.15954961 1.52617175 9.3125 4.3125 C10.1875 7.5625 10.1875 7.5625 10.3125 10.3125 C6.47821972 10.67766955 4.52437268 10.42251082 1.0625 8.625 C-1.76592969 6.24654776 -2.71302263 4.82061852 -3.6875 1.3125 C-2.6875 0.3125 -2.6875 0.3125 0 0 Z " fill="#495972" transform="translate(226.6875,415.6875)"/>
<path d="M0 0 C7.1760667 0.36488475 7.1760667 0.36488475 11 3.3125 C13 6 13 6 13 10 C9.51527717 10.42670076 6.9813155 10.64789556 3.9765625 8.6640625 C2.25103253 7.16390788 0.59940232 5.63343216 -1 4 C-0.67 2.68 -0.34 1.36 0 0 Z " fill="#4A5972" transform="translate(77,222)"/>
<path d="M0 0 C4.59274801 2.04122134 6.26405386 4.59284012 8.28515625 8.9921875 C9.14877965 11.41788384 9.31908768 13.44729855 9 16 C7.35 16.33 5.7 16.66 4 17 C1.60251894 11.26689311 0.41588046 6.19518473 0 0 Z " fill="#59687B" transform="translate(140,251)"/>
<path d="M0 0 C5.62917348 0.40208382 8.00386479 2.28930302 12 6 C11.67 7.32 11.34 8.64 11 10 C6.70223394 9.74719023 4.45348354 9.34956023 1 6.6875 C-1 4 -1 4 -0.8125 1.6875 C-0.4103125 0.8521875 -0.4103125 0.8521875 0 0 Z " fill="#1E2A44" transform="translate(282,323)"/>
<path d="M0 0 C5.29397231 0.30542148 8.13397287 1.36827755 12 5 C11.67 6.65 11.34 8.3 11 10 C6.15563297 9.54936121 3.46006039 8.46006039 0 5 C-0.875 2.8125 -0.875 2.8125 -1 1 C-0.67 0.67 -0.34 0.34 0 0 Z " fill="#34475E" transform="translate(193,124)"/>
<path d="M0 0 C0.99 0 1.98 0 3 0 C3.67155349 2.26949102 4.3373963 4.5403961 5 6.8125 C5.37125 8.07707031 5.7425 9.34164063 6.125 10.64453125 C7 14 7 14 7 17 C3.1534702 15.76361542 1.61332207 13.37169126 -0.24609375 9.87890625 C-1.33627223 7.16193294 -1.33502519 4.8812166 -1 2 C-0.67 1.34 -0.34 0.68 0 0 Z " fill="#31435A" transform="translate(136,250)"/>
<path d="M0 0 C5.35048061 0.37328935 7.50912907 1.9957657 11 6 C10.67 6.99 10.34 7.98 10 9 C6.39755548 8.69121904 5.00654002 8.00552268 2.1875 5.625 C0 3 0 3 0 0 Z " fill="#2F4158" transform="translate(269,381)"/>
</svg>
